
<svg width="36px" height="29px" viewBox="0 0 36 29" version="1.1" xmlns="http://www.w3.org/2000/svg" xmlns:xlink="http://www.w3.org/1999/xlink">
    <!-- Generator: Sketch 51.1 (57501) - http://www.bohemiancoding.com/sketch -->
    <desc>Created with Sketch.</desc>
    <defs></defs>
    <g id="Page-1" stroke="none" stroke-width="1" fill="none" fill-rule="evenodd">
        <g id="我的粉丝" transform="translate(-31.000000, -458.000000)" fill-rule="nonzero">
            <g id="会员" transform="translate(30.000000, 453.000000)">
                <rect id="Rectangle-path" fill="#000000" opacity="0" x="0" y="0" width="38" height="38"></rect>
                <path d="M24.6355781,5.46743555 L13.4386406,5.46743555 C12.1612988,5.46743555 10.9362812,5.98689258 10.033002,6.91158398 L2.31944727,14.8077168 C1.60182617,15.5424082 1.60182617,16.7334336 2.31944727,17.468125 L17.3154199,32.8192715 C18.2662734,33.7926133 19.8078711,33.7926133 20.7587246,32.8192715 L35.7546973,17.468125 C36.4723184,16.7334336 36.4723184,15.5424082 35.7546973,14.8077168 L28.0410684,6.91158398 C27.1379375,5.98689258 25.9129199,5.46743555 24.6355781,5.46743555 Z" id="Shape" fill="#FFA820"></path>
                <path d="M2.31948438,14.8076797 C1.60186328,15.5423711 1.60186328,16.7333965 2.31948438,17.4680879 L2.64111133,17.7973594 C2.71848438,16.3638984 2.98826953,14.9816484 3.42512109,13.6758809 L2.31948438,14.8076797 Z M35.7547344,14.8076797 L31.9627871,10.926002 C33.2573477,13.2078203 33.9967891,15.8458887 33.9967891,18.6567383 C33.9967891,18.8655527 33.9925957,19.0734023 33.984543,19.28025 L35.7548086,17.4680879 C36.4723926,16.7333965 36.4723926,15.5423711 35.7547344,14.8076797 Z" id="Shape" fill="#FEAC33"></path>
                <path d="M5.93772266,11.103793 L3.42512109,13.6758809 C2.98826953,14.9816484 2.71852148,16.3638984 2.64111133,17.7973594 L4.17658594,19.3692012 C4.12528627,18.8875788 4.09958281,18.4035733 4.09958398,17.9192266 C4.09958398,15.4341602 4.76925977,13.105584 5.93772266,11.103793 Z M31.9627871,10.926002 L28.0411426,6.91154687 C27.1379375,5.98689258 25.9129199,5.46739844 24.6355781,5.46739844 L22.9649512,5.46739844 C27.7949219,7.53594922 31.1788887,12.3322988 31.1788887,17.9191895 C31.1788887,19.8245703 30.7851211,21.6378828 30.0748105,23.2825332 L33.9845059,19.28025 C33.9925957,19.0734023 33.996752,18.8655527 33.996752,18.6567383 C33.996752,15.8458516 33.2573477,13.2077832 31.9627871,10.926002 Z M15.8750937,31.3447676 L17.315457,32.8192344 C18.2663105,33.7925762 19.8079082,33.7925762 20.7587617,32.8192344 L23.2925156,30.2254746 C21.5720508,31.0171289 19.6572441,31.4588418 17.6392363,31.4588418 C17.049343,31.4589349 16.4600626,31.4208305 15.8750938,31.3447676 Z" id="Shape" fill="#FEB133"></path>
                <path d="M22.9649512,5.46743555 L13.4386406,5.46743555 C12.1612988,5.46743555 10.9362813,5.98689258 10.033002,6.91158398 L5.93768555,11.1038301 C4.76922266,13.1056211 4.09954688,15.4341973 4.09954688,17.9192266 C4.09954688,18.4090703 4.12582031,18.892791 4.17654883,19.3692012 L6.56242188,21.8115918 C5.93223047,20.3969082 5.58139844,18.830373 5.58139844,17.1817148 C5.58139844,10.8913047 10.6807832,5.79191992 16.9711934,5.79191992 C23.2616035,5.79191992 28.3609883,10.8913047 28.3609883,17.1817148 C28.3609883,23.472125 23.2616035,28.5714727 16.9712305,28.5714727 C15.2276465,28.5714727 13.5759082,28.1791152 12.0985469,27.4787871 L15.8750937,31.3448047 C16.4600626,31.4208676 17.049343,31.458972 17.6392363,31.4588789 C19.6572441,31.4588789 21.5720508,31.017166 23.2925156,30.2255117 L30.0748105,23.2825703 C30.785084,21.6379199 31.1788887,19.8245703 31.1788887,17.9192266 C31.1788887,12.3322988 27.7949219,7.53594922 22.9649512,5.46743555 Z" id="Shape" fill="#FEB633"></path>
                <path d="M28.3609883,17.1816777 C28.3609883,10.8912676 23.2616035,5.79188281 16.9711934,5.79188281 C10.6807832,5.79188281 5.58143555,10.8912676 5.58143555,17.1816777 C5.58143555,18.8303359 5.93223047,20.3969082 6.56245898,21.8115547 L12.0985469,27.47875 C13.5758711,28.1790781 15.2276465,28.5714355 16.9712305,28.5714355 C23.2616035,28.5714727 28.3609883,23.4720879 28.3609883,17.1816777 Z M7.06328711,16.4441289 C7.06328711,11.3410703 11.2001289,7.20422852 16.3031875,7.20422852 C21.4062461,7.20422852 25.543125,11.3410703 25.543125,16.4441289 C25.543125,21.5471875 21.4062461,25.6840664 16.3031875,25.6840664 C11.2001289,25.6840664 7.06328711,21.5472246 7.06328711,16.4441289 Z" id="Shape" fill="#FFBC34"></path>
                <path d="M25.543125,16.4441289 C25.543125,11.3410703 21.4062832,7.20422852 16.3032246,7.20422852 C11.200166,7.20422852 7.06328711,11.3410703 7.06328711,16.4441289 C7.06328711,21.5471875 11.2001289,25.6840293 16.3031875,25.6840293 C21.4062461,25.6840293 25.543125,21.5472246 25.543125,16.4441289 Z M15.6351816,22.7966602 C11.7194746,22.7966602 8.54513867,19.6223242 8.54513867,15.7066172 C8.54513867,11.7909102 11.7194746,8.61657422 15.6351816,8.61657422 C19.5508887,8.61657422 22.7252246,11.7909102 22.7252246,15.7066172 C22.7252246,19.6223242 19.5509258,22.7966602 15.6351816,22.7966602 Z" id="Shape" fill="#FFC134"></path>
                <path d="M15.6351816,8.61657422 C11.7194746,8.61657422 8.54513867,11.7909102 8.54513867,15.7066172 C8.54513867,19.6223242 11.7194746,22.7966602 15.6351816,22.7966602 C19.5508887,22.7966602 22.7252246,19.6223242 22.7252246,15.7066172 C22.7252246,11.7909102 19.5509258,8.61657422 15.6351816,8.61657422 Z M14.9671758,19.9092539 C12.2387832,19.9092539 10.0269902,17.6974609 10.0269902,14.9690684 C10.0269902,12.2406758 12.2387832,10.0288828 14.9671758,10.0288828 C17.6955684,10.0288828 19.9073613,12.2406758 19.9073613,14.9690684 C19.9073613,17.6974609 17.6955684,19.9092539 14.9671758,19.9092539 Z" id="Shape" fill="#FFC634"></path>
                <path d="M10.0269902,14.9691055 C10.0269902,17.6974946 12.2387866,19.909291 14.9671758,19.909291 C17.6955649,19.909291 19.9073613,17.6974946 19.9073613,14.9691055 C19.9073613,12.2407163 17.6955649,10.0289199 14.9671758,10.0289199 C12.2387866,10.0289199 10.0269902,12.2407163 10.0269902,14.9691055 Z" id="Shape" fill="#FFCB34"></path>
                <path d="M24.6355781,6.1354043 C25.1811602,6.1354043 25.7135313,6.24383789 26.2178848,6.45773633 C26.7233145,6.67204297 27.1759746,6.98179492 27.5633223,7.3783457 L35.2769141,15.2744414 C35.7419688,15.7505547 35.7419688,16.52525 35.2769512,17.0013262 L20.2809414,32.3524727 C19.9478105,32.6934707 19.5060605,32.8812813 19.0371094,32.8812813 C18.5681211,32.8812813 18.1263711,32.6934707 17.7932773,32.3524727 L2.79730469,17.0013262 C2.33225,16.5252129 2.33225,15.7505176 2.79726758,15.2744414 L10.5108223,7.37830859 C10.898207,6.98175781 11.3508672,6.67200586 11.8562969,6.45769922 C12.3606504,6.24383789 12.8930215,6.13536719 13.4386035,6.13536719 L24.6355781,6.13536719 L24.6355781,6.1354043 Z M24.6355781,5.46743555 L13.4386406,5.46743555 C12.1612988,5.46743555 10.9362813,5.98689258 10.0330391,6.91154688 L2.31948438,14.8076797 C1.60186328,15.5423711 1.60186328,16.7333965 2.31948438,17.4680879 L17.315457,32.8192344 C17.7908652,33.3059238 18.4140059,33.54925 19.0371094,33.54925 C19.6602129,33.54925 20.2833535,33.3059238 20.7587617,32.8192344 L35.7547344,17.4680879 C36.4723555,16.7333965 36.4723555,15.5423711 35.7547344,14.8076797 L28.0411055,6.91154688 C27.1379375,5.98689258 25.9129199,5.46743555 24.6355781,5.46743555 Z" id="Shape" fill="#FFA820"></path>
                <path d="M21.7277617,11.1094336 L16.346457,11.1094336 C15.7325566,11.1094336 15.1438535,11.3575469 14.7097109,11.7990742 L11.0025586,15.5704629 C10.6576641,15.9212949 10.6576641,16.4901445 11.0025586,16.8409766 L18.2096816,24.1728984 C18.4272484,24.3958435 18.7255787,24.5215549 19.0370908,24.5215549 C19.348603,24.5215549 19.6469332,24.3958435 19.8645,24.1728984 L27.071623,16.8409766 C27.4165176,16.4901445 27.4165176,15.9212949 27.071623,15.5704629 L23.3645449,11.7990742 C22.9304395,11.3575469 22.3416621,11.1094336 21.7277617,11.1094336 Z" id="Shape" fill="#FFE3B4"></path>
            </g>
        </g>
    </g>
</svg>