
<svg width="58px" height="58px" viewBox="0 0 58 58" version="1.1" xmlns="http://www.w3.org/2000/svg" xmlns:xlink="http://www.w3.org/1999/xlink">
    <!-- Generator: Sketch 51.1 (57501) - http://www.bohemiancoding.com/sketch -->
    <desc>Created with Sketch.</desc>
    <defs></defs>
    <g id="Page-1" stroke="none" stroke-width="1" fill="none" fill-rule="evenodd">
        <g id="首页" transform="translate(-29.000000, -688.000000)">
            <g id="余额-copy" transform="translate(0.000000, 650.000000)">
                <g id="logo" transform="translate(30.000000, 39.000000)">
                    <circle id="Oval" stroke="#3C3C4E" fill-rule="nonzero" cx="28" cy="28" r="28"></circle>
                    <path d="M21.3338393,25.7757405 L19.113162,18.9237467 L16.7557292,11.936665 L21.3350031,11.936665 L23.8028588,18.9237467 L26.2710054,25.7757405 L28.2317016,31.2182057 L30.1889063,25.7757405 L32.65618,18.915368 L35.1656442,11.936665 L40.1013555,11.936665 L37.5908729,18.915368 L35.1233082,25.7757405 L33.1649397,31.2182057 L30.6997028,38.0703466 L25.7632641,38.0703466 L23.294972,31.2182057 L21.3338393,25.7757405 Z M38.4566082,20.163688 L39.7393461,16.5981934 L39.8595164,16.6677218 L43.8571429,18.9999339 L43.8571429,37.0001249 L39.8595164,39.332631 L32.4956668,43.6276585 L28.4283532,46 L24.4033756,43.6522065 L16.9980629,39.332631 L13,37.0001249 L13,32.2966003 L13,23.7278596 L13,18.9999339 L16.9980629,16.6677218 L18.3535431,20.6855179 L16.9980629,21.3325869 L16.9980629,21.3683066 L16.9980629,34.6202867 L16.9980629,34.6677659 L28.4180238,41.3292551 L28.4283532,41.3355758 L28.4903297,41.2995622 L31.0803924,39.7887544 L39.8595164,34.7096592 L39.8939963,34.688933 L39.8595164,34.6677659 L39.8595164,21.3325869 L39.8595164,21.2687914 L38.3713542,20.4003489 L38.4566082,20.163688 Z M28.4283387,10 L32.3668983,12.2973744 L33.4858206,12.9500293 L32.1192835,16.7517437 L28.4487065,14.6100363 L28.4283387,14.5981297 L28.4283387,14.6219428 L24.4294028,16.9820838 L23.0675213,13.1268635 L24.4878877,12.2986974 L28.4283387,10 Z" fill="#3C3C4E"></path>
                </g>
            </g>
        </g>
    </g>
</svg>