
<svg width="37px" height="37px" viewBox="0 0 37 37" version="1.1" xmlns="http://www.w3.org/2000/svg" xmlns:xlink="http://www.w3.org/1999/xlink">
    <!-- Generator: Sketch 51.1 (57501) - http://www.bohemiancoding.com/sketch -->
    <desc>Created with Sketch.</desc>
    <defs></defs>
    <g id="Page-1" stroke="none" stroke-width="1" fill="none" fill-rule="evenodd">
        <g id="首页" transform="translate(-357.000000, -1254.000000)">
            <g id="导航/底部导航-copy" transform="translate(0.000000, 1236.000000)">
                <g id="Tab-2" transform="translate(304.000000, 0.000000)">
                    <g id="↳-Icon" transform="translate(43.000000, 8.750000)">
                        <g id="图标/首页/选中">
                            <g id="icon/资产-未选中">
                                <g id="图标/参考网格/无"></g>
                                <g id="资产未选中" transform="translate(10.181818, 10.181818)" fill="#D9DDE2" fill-rule="nonzero">
                                    <path d="M31.2903513,12.5216979 C34.2201159,15.2880865 36.0021158,18.3500618 35.9999981,21.6460433 C35.9999981,27.2773494 33.5075277,31.207137 29.1261161,33.5462512 C25.8977633,35.2695597 21.9070577,36 17.8252932,36 C8.08517605,36 0,31.3738783 0,21.6460433 C0,18.1378457 1.77035285,14.9782889 4.68423505,12.2147425 C5.6879997,11.264507 6.75952906,10.4270112 7.83211724,9.70983447 C8.00894076,9.59235769 8.17199957,9.48624964 8.32552898,9.38866812 C6.783882,8.66012263 5.7599997,7.37166768 5.7599997,5.88236533 C5.7599997,3.53756678 8.24294074,1.74415116 11.1907053,1.74415116 C11.8694111,1.74415116 12.494117,1.85783836 13.0542346,2.04921182 C13.3252934,2.14110898 13.5264699,2.23584831 13.6905875,2.32206111 C13.7678816,2.35521987 13.9881169,2.3087976 14.0738816,2.21784784 L14.0749404,2.21879523 C14.3004698,1.92036633 14.6308228,1.55656728 15.1125874,1.18139951 C16.050705,0.450959236 17.1614109,0 18.4298814,0 C19.6983519,0 20.8090577,0.450959236 21.7471753,1.18139951 C22.2405871,1.56509382 22.5783518,1.93931419 22.8038812,2.24153267 L22.8070576,2.23963789 C22.8674106,2.30690281 23.0876458,2.35048291 23.1903517,2.31163978 C23.3523517,2.22826916 23.5471752,2.1382668 23.8076458,2.04921182 C24.3677634,1.85878576 24.9924693,1.74415116 25.6711751,1.74415116 C28.6199985,1.74415116 31.1018807,3.53756678 31.1018807,5.88236533 C31.1018807,7.62367431 29.7063514,9.09402879 27.711528,9.70888708 C27.8544691,9.80267902 27.9772927,9.88036527 28.1382338,9.9902629 C29.2118808,10.7263875 30.2855278,11.5733572 31.2903513,12.5216979 Z M22.8557635,21.0340272 C23.4116458,21.0340272 23.8616458,20.6209637 23.8616458,20.1122135 C23.8616458,19.6034632 23.4116458,19.1903997 22.8557635,19.1903997 L18.7475284,19.1903997 L22.5614106,15.6945183 C22.9542341,15.3345088 22.9542341,14.7509145 22.5614106,14.390905 C22.1685871,14.0308955 21.5322342,14.0308955 21.1394107,14.390905 L17.8284697,17.4254059 L14.5175287,14.390905 C14.1247051,14.0308955 13.4883522,14.0308955 13.0955287,14.390905 C12.7027052,14.7509145 12.7027052,15.3345088 13.0955287,15.6945183 L16.9094109,19.1903997 L12.8011758,19.1903997 C12.2452935,19.1903997 11.7952935,19.6034632 11.7952935,20.1122135 C11.7952935,20.6209637 12.2452935,21.0340272 12.8011758,21.0340272 L16.8236462,21.0340272 L16.8236462,21.9558409 L12.8011758,21.9558409 C12.2452935,21.9558409 11.7952935,22.3679571 11.7952935,22.8776547 C11.7952935,23.3864049 12.2452935,23.7994684 12.8011758,23.7994684 L16.8236462,23.7994684 L16.8236462,26.4540646 C16.8236462,26.8434432 17.2736462,27.1589252 17.8295285,27.1589252 C18.384352,27.1589252 18.8354108,26.8434432 18.8354108,26.4540646 L18.8354108,23.7994684 L22.8578812,23.7994684 C23.4127047,23.7994684 23.8637635,23.3864049 23.8637635,22.8776547 C23.8637635,22.3689044 23.4137635,21.9558409 22.8578812,21.9558409 L18.8354108,21.9558409 L18.8354108,21.0340272 L22.8557635,21.0340272 Z" id="Combined-Shape"></path>
                                </g>
                            </g>
                        </g>
                    </g>
                </g>
            </g>
        </g>
    </g>
</svg>